<svg viewBox="0 0 240 120" xmlns="http://www.w3.org/2000/svg">
  <circle fill="#E85F5F" cx="16" cy="84" r="16"/>
  <circle fill="#F9C964" cx="100" cy="16" r="16"/>
  <path fill="#008F8F" d="M64 36c2.2 0 4 1.8 4 4v28c0 16.6-13.4 30-30 30h-2V68 40c0-2.2 1.8-4 4-4h24zm48 0c2.2 0 4 1.8 4 4v40c0 2.2-1.8 4-4 4H88c-2.2 0-4-1.8-4-4V40c0-2.2 1.8-4 4-4h24zm36 0h2c16 0 28 12 28 28v16c0 2.2-1.8 4-4 4h-38c-2.2 0-4-1.8-4-4V40c0-2.2 1.8-4 4-4h12zm64 48c-12.8-0.8-22-11.2-22-24 0-13.2 10.8-24 24-24 12.8 0 23.2 9.2 24 22v22c0 2.2-1.8 4-4 4h-22z"/>
</svg>
