<?xml version="1.0" encoding="UTF-8"?>
<svg width="235px" height="100px" viewBox="0 0 235 100" version="1.1" xmlns="http://www.w3.org/2000/svg" xmlns:xlink="http://www.w3.org/1999/xlink">
    <title>Company logo_dark</title>
    <g id="Company-logo_dark" stroke="none" stroke-width="1" fill="none" fill-rule="evenodd">
        <g id="Company-logo_light" fill="#FFFFFF" fill-rule="nonzero">
            <circle id="椭圆形备份-3" cx="15.3" cy="84.5" r="15.3"></circle>
            <path d="M63.5,36.3 C65.5,36.3 67.1,37.9 67.1,39.9 L66.9,69.2 C66.9,85.9 53.5,99.5 36.8,99.8 L36.3,99.8 L36.3,69.3 L36.3,40 C36.3,38 38.1,36.3 40.1,36.3 L63.5,36.3 Z M110.5,36.3 C112.5,36.3 114.1,37.9 114.1,39.9 L114.1,80.9 C114.1,82.9 112.5,84.5 110.5,84.5 L87.1,84.5 C85.1,84.5 83.5,82.9 83.5,80.9 L83.5,39.9 C83.5,37.9 85.1,36.3 87.1,36.3 L110.5,36.3 Z M147.3,36.2 L147.8,36.2 C162.8,36.4 175,48.5 175.4,63.5 L175.4,80.8 C175.4,82.8 173.8,84.4 171.8,84.4 L134,84.4 C132,84.4 130.4,82.8 130.4,80.8 L130.4,39.8 C130.4,37.8 132,36.2 134,36.2 L147.3,36.2 Z M209.2,84 C196.6,83.2 186.5,72.7 186.5,59.9 C186.5,46.6 197.3,35.8 210.6,35.8 C223.4,35.8 233.9,45.8 234.7,58.5 L234.7,80.4 C234.7,82.4 233.1,84 231.1,84 L209.2,84 Z" id="形状结合"></path>
            <circle id="椭圆形" cx="98.74898" cy="15.3" r="15.3"></circle>
        </g>
    </g>
</svg>